# xmcd
#
# Track frame offsets: 
#        150
#        22365
#        39882
#        59035
#        86640
#        118500
#        143620
#
# Disc length: 2177 seconds
#
# Revision: 3
# Processed by: cddbd v1.5.2PL0 Copyright (c) Steve Scherf et al.
# Submitted via: ExactAudioCopy v1.0b1
#
DISCID=5d087f07
DTITLE=Crusaders - Ghetto Blaster
DYEAR=1984
DGENRE=Jazz+Funk
TTITLE0=Dead End
TTITLE1=Gotta Lotta Shakalada
TTITLE2=New Moves
TTITLE3=Zalal'e Mini (Take It Easy)
TTITLE4=Night Ladies
TTITLE5=Mr. Cool
TTITLE6=Dream Street
EXTD=1984
EXTT0=
EXTT1=
EXTT2=
EXTT3=
EXTT4=
EXTT5=
EXTT6=
PLAYORDER=
